<svg xmlns="http://www.w3.org/2000/svg" width="87" height="86" fill="none" viewBox="0 0 87 86">
  <path fill="#fff" d="M36.472 13.057C16.324 13.057 0 29.38 0 49.528 0 69.676 16.324 86 36.472 86c20.147 0 36.471-16.324 36.471-36.472 0-20.147-16.324-36.471-36.471-36.471zm29.412 36.471c0 3.31-.573 6.5-1.588 9.471h-2.985c-.633 0-1.236-.25-1.677-.706L54.928 53.5a1.753 1.753 0 01.015-2.456l1.838-1.838v-1.28a1.67 1.67 0 00-.485-1.176l-1.383-1.383a1.67 1.67 0 00-1.176-.485h-2.353a1.67 1.67 0 01-1.662-1.662c0-.44.176-.867.485-1.176l1.383-1.383a1.67 1.67 0 011.176-.485h4.706a1.67 1.67 0 001.662-1.662v-1.382a1.67 1.67 0 00-1.662-1.662h-5.397a2.36 2.36 0 00-2.353 2.353v.662a2.36 2.36 0 01-1.603 2.235l-4.647 1.544a1.17 1.17 0 00-.809 1.118v.324a1.18 1.18 0 01-1.176 1.176h-2.354a1.18 1.18 0 01-1.176-1.176 1.18 1.18 0 00-1.176-1.177h-.456c-.442 0-.853.25-1.06.647l-1.382 2.75a2.342 2.342 0 01-2.103 1.294h-3.25a2.36 2.36 0 01-2.353-2.353v-3.72c0-.618.25-1.22.691-1.662l2.956-2.956a3.639 3.639 0 001.06-2.574c0-.5.323-.956.808-1.117l5.883-1.956c.25-.088.47-.22.647-.397l3.941-3.942a1.67 1.67 0 00.485-1.176 1.67 1.67 0 00-1.662-1.662h-3.044l-2.353 2.353v1.177a1.18 1.18 0 01-1.176 1.176H32.06a1.18 1.18 0 01-1.177-1.176v-2.942c0-.367.177-.72.47-.94l4.251-3.192c.28-.015.559-.044.838-.044 16.25 0 29.442 13.191 29.442 29.412zm-46.751-15.72c0-.442.176-.868.485-1.177l3.736-3.736a1.67 1.67 0 011.176-.485c.912 0 1.662.75 1.662 1.662v2.353c0 .441-.177.868-.485 1.176l-1.383 1.383a1.67 1.67 0 01-1.176.485h-2.353a1.67 1.67 0 01-1.662-1.662zm18.824 45.06v-1.045a2.36 2.36 0 00-2.353-2.353h-2.97c-1.589 0-3.927-.78-5.207-1.735l-3.264-2.456a6.68 6.68 0 01-2.677-5.353V62.41a6.683 6.683 0 013.25-5.735l6.309-3.78a6.78 6.78 0 013.441-.956h4.589c1.603 0 3.147.574 4.353 1.603L49.78 59h2.691c1.25 0 2.441.5 3.324 1.383l2.544 2.544c.5.5 1.191.78 1.897.78h1.97a29.36 29.36 0 01-24.25 15.161z"/>
  <path fill="#fff" d="M58.208 26.574c2.576-14.035 2.365-15.951 5.418-19.003 4.18-4.182 10.96-4.182 15.14 0 4.182 4.18 4.182 10.96 0 15.14-3.052 3.053-4.967 2.842-19.002 5.419a1.339 1.339 0 01-1.556-1.556zm9.834-8.278a4.461 4.461 0 106.309-6.31 4.461 4.461 0 00-6.31 6.31z"/>
</svg>
